<mxfile host="app.diagrams.net" agent="Mozilla/5.0 (Windows NT 10.0; Win64; x64) AppleWebKit/537.36 (KHTML, like Gecko) Chrome/129.0.0.0 Safari/537.36" version="24.7.17">
  <diagram name="Page-1" id="CBjW_3VgxyrX3LKRXgTC">
    <mxGraphModel dx="2333" dy="1553" grid="1" gridSize="10" guides="1" tooltips="1" connect="1" arrows="1" fold="1" page="1" pageScale="1" pageWidth="850" pageHeight="1100" math="0" shadow="0">
      <root>
        <mxCell id="0" />
        <mxCell id="1" parent="0" />
        <mxCell id="UxR5oteiXbD-qRTRlNMC-31" style="edgeStyle=none;shape=connector;rounded=0;orthogonalLoop=1;jettySize=auto;html=1;exitX=0.5;exitY=1;exitDx=0;exitDy=0;entryX=0.5;entryY=0;entryDx=0;entryDy=0;strokeColor=default;align=center;verticalAlign=middle;fontFamily=Helvetica;fontSize=11;fontColor=default;labelBackgroundColor=default;endArrow=none;" edge="1" parent="1" source="UxR5oteiXbD-qRTRlNMC-1" target="UxR5oteiXbD-qRTRlNMC-30">
          <mxGeometry relative="1" as="geometry" />
        </mxCell>
        <mxCell id="UxR5oteiXbD-qRTRlNMC-1" value="League" style="whiteSpace=wrap;html=1;align=center;" vertex="1" parent="1">
          <mxGeometry x="200" y="220" width="100" height="40" as="geometry" />
        </mxCell>
        <mxCell id="UxR5oteiXbD-qRTRlNMC-43" style="edgeStyle=none;shape=connector;rounded=0;orthogonalLoop=1;jettySize=auto;html=1;exitX=1;exitY=0.5;exitDx=0;exitDy=0;entryX=0;entryY=0.5;entryDx=0;entryDy=0;strokeColor=default;align=center;verticalAlign=middle;fontFamily=Helvetica;fontSize=11;fontColor=default;labelBackgroundColor=default;endArrow=open;startArrow=open;startFill=0;endFill=0;" edge="1" parent="1" source="UxR5oteiXbD-qRTRlNMC-2" target="UxR5oteiXbD-qRTRlNMC-40">
          <mxGeometry relative="1" as="geometry" />
        </mxCell>
        <mxCell id="UxR5oteiXbD-qRTRlNMC-44" style="edgeStyle=none;shape=connector;rounded=0;orthogonalLoop=1;jettySize=auto;html=1;exitX=1;exitY=0.5;exitDx=0;exitDy=0;entryX=0;entryY=0.5;entryDx=0;entryDy=0;strokeColor=default;align=center;verticalAlign=middle;fontFamily=Helvetica;fontSize=11;fontColor=default;labelBackgroundColor=default;endArrow=open;startArrow=open;startFill=0;endFill=0;" edge="1" parent="1" source="UxR5oteiXbD-qRTRlNMC-2" target="UxR5oteiXbD-qRTRlNMC-41">
          <mxGeometry relative="1" as="geometry" />
        </mxCell>
        <mxCell id="UxR5oteiXbD-qRTRlNMC-2" value="Player" style="whiteSpace=wrap;html=1;align=center;" vertex="1" parent="1">
          <mxGeometry x="570" y="380" width="100" height="40" as="geometry" />
        </mxCell>
        <mxCell id="UxR5oteiXbD-qRTRlNMC-21" style="edgeStyle=none;shape=connector;rounded=0;orthogonalLoop=1;jettySize=auto;html=1;exitX=1;exitY=0.5;exitDx=0;exitDy=0;entryX=0;entryY=1;entryDx=0;entryDy=0;strokeColor=default;align=center;verticalAlign=middle;fontFamily=Helvetica;fontSize=11;fontColor=default;labelBackgroundColor=default;endArrow=none;startArrow=block;startFill=1;" edge="1" parent="1" source="UxR5oteiXbD-qRTRlNMC-3" target="UxR5oteiXbD-qRTRlNMC-18">
          <mxGeometry relative="1" as="geometry" />
        </mxCell>
        <mxCell id="UxR5oteiXbD-qRTRlNMC-3" value="Roster" style="whiteSpace=wrap;html=1;align=center;" vertex="1" parent="1">
          <mxGeometry x="200" y="630" width="100" height="40" as="geometry" />
        </mxCell>
        <mxCell id="UxR5oteiXbD-qRTRlNMC-32" style="edgeStyle=none;shape=connector;rounded=0;orthogonalLoop=1;jettySize=auto;html=1;exitX=0.5;exitY=0;exitDx=0;exitDy=0;entryX=0.5;entryY=1;entryDx=0;entryDy=0;strokeColor=default;align=center;verticalAlign=middle;fontFamily=Helvetica;fontSize=11;fontColor=default;labelBackgroundColor=default;endArrow=none;" edge="1" parent="1" source="UxR5oteiXbD-qRTRlNMC-4" target="UxR5oteiXbD-qRTRlNMC-30">
          <mxGeometry relative="1" as="geometry" />
        </mxCell>
        <mxCell id="UxR5oteiXbD-qRTRlNMC-34" style="edgeStyle=none;shape=connector;rounded=0;orthogonalLoop=1;jettySize=auto;html=1;exitX=0.5;exitY=1;exitDx=0;exitDy=0;entryX=0.5;entryY=0;entryDx=0;entryDy=0;strokeColor=default;align=center;verticalAlign=middle;fontFamily=Helvetica;fontSize=11;fontColor=default;labelBackgroundColor=default;endArrow=none;startArrow=open;startFill=0;" edge="1" parent="1" source="UxR5oteiXbD-qRTRlNMC-4" target="UxR5oteiXbD-qRTRlNMC-33">
          <mxGeometry relative="1" as="geometry" />
        </mxCell>
        <mxCell id="UxR5oteiXbD-qRTRlNMC-4" value="User" style="whiteSpace=wrap;html=1;align=center;" vertex="1" parent="1">
          <mxGeometry x="200" y="380" width="100" height="40" as="geometry" />
        </mxCell>
        <mxCell id="UxR5oteiXbD-qRTRlNMC-24" style="edgeStyle=none;shape=connector;rounded=0;orthogonalLoop=1;jettySize=auto;html=1;exitX=1;exitY=0.5;exitDx=0;exitDy=0;entryX=0;entryY=0.5;entryDx=0;entryDy=0;strokeColor=default;align=center;verticalAlign=middle;fontFamily=Helvetica;fontSize=11;fontColor=default;labelBackgroundColor=default;endArrow=none;" edge="1" parent="1" source="UxR5oteiXbD-qRTRlNMC-11" target="UxR5oteiXbD-qRTRlNMC-4">
          <mxGeometry relative="1" as="geometry" />
        </mxCell>
        <mxCell id="UxR5oteiXbD-qRTRlNMC-11" value="userID" style="ellipse;whiteSpace=wrap;html=1;align=center;fontStyle=4;" vertex="1" parent="1">
          <mxGeometry x="60" y="380" width="100" height="40" as="geometry" />
        </mxCell>
        <mxCell id="UxR5oteiXbD-qRTRlNMC-26" style="edgeStyle=none;shape=connector;rounded=0;orthogonalLoop=1;jettySize=auto;html=1;exitX=1;exitY=0.5;exitDx=0;exitDy=0;entryX=0;entryY=0.5;entryDx=0;entryDy=0;strokeColor=default;align=center;verticalAlign=middle;fontFamily=Helvetica;fontSize=11;fontColor=default;labelBackgroundColor=default;endArrow=none;" edge="1" parent="1" source="UxR5oteiXbD-qRTRlNMC-13" target="UxR5oteiXbD-qRTRlNMC-1">
          <mxGeometry relative="1" as="geometry" />
        </mxCell>
        <mxCell id="UxR5oteiXbD-qRTRlNMC-13" value="leagueID" style="ellipse;whiteSpace=wrap;html=1;align=center;fontStyle=4;" vertex="1" parent="1">
          <mxGeometry x="60" y="190" width="100" height="40" as="geometry" />
        </mxCell>
        <mxCell id="UxR5oteiXbD-qRTRlNMC-27" style="edgeStyle=none;shape=connector;rounded=0;orthogonalLoop=1;jettySize=auto;html=1;exitX=0.5;exitY=1;exitDx=0;exitDy=0;entryX=0.5;entryY=0;entryDx=0;entryDy=0;strokeColor=default;align=center;verticalAlign=middle;fontFamily=Helvetica;fontSize=11;fontColor=default;labelBackgroundColor=default;endArrow=none;" edge="1" parent="1" source="UxR5oteiXbD-qRTRlNMC-14" target="UxR5oteiXbD-qRTRlNMC-2">
          <mxGeometry relative="1" as="geometry" />
        </mxCell>
        <mxCell id="UxR5oteiXbD-qRTRlNMC-14" value="playerID" style="ellipse;whiteSpace=wrap;html=1;align=center;fontStyle=4;" vertex="1" parent="1">
          <mxGeometry x="460" y="180" width="100" height="40" as="geometry" />
        </mxCell>
        <mxCell id="UxR5oteiXbD-qRTRlNMC-25" style="edgeStyle=none;shape=connector;rounded=0;orthogonalLoop=1;jettySize=auto;html=1;exitX=1;exitY=0.5;exitDx=0;exitDy=0;strokeColor=default;align=center;verticalAlign=middle;fontFamily=Helvetica;fontSize=11;fontColor=default;labelBackgroundColor=default;endArrow=none;" edge="1" parent="1" source="UxR5oteiXbD-qRTRlNMC-17">
          <mxGeometry relative="1" as="geometry">
            <mxPoint x="199.9999999999999" y="400" as="targetPoint" />
          </mxGeometry>
        </mxCell>
        <mxCell id="UxR5oteiXbD-qRTRlNMC-17" value="displayName" style="ellipse;whiteSpace=wrap;html=1;align=center;" vertex="1" parent="1">
          <mxGeometry x="60" y="440" width="100" height="40" as="geometry" />
        </mxCell>
        <mxCell id="UxR5oteiXbD-qRTRlNMC-22" style="edgeStyle=none;shape=connector;rounded=0;orthogonalLoop=1;jettySize=auto;html=1;exitX=1;exitY=0;exitDx=0;exitDy=0;entryX=0.5;entryY=1;entryDx=0;entryDy=0;strokeColor=default;align=center;verticalAlign=middle;fontFamily=Helvetica;fontSize=11;fontColor=default;labelBackgroundColor=default;endArrow=none;" edge="1" parent="1" source="UxR5oteiXbD-qRTRlNMC-18" target="UxR5oteiXbD-qRTRlNMC-2">
          <mxGeometry relative="1" as="geometry" />
        </mxCell>
        <mxCell id="UxR5oteiXbD-qRTRlNMC-18" value="&amp;nbsp;contains" style="shape=rhombus;perimeter=rhombusPerimeter;whiteSpace=wrap;html=1;align=center;" vertex="1" parent="1">
          <mxGeometry x="380" y="525" width="120" height="60" as="geometry" />
        </mxCell>
        <mxCell id="UxR5oteiXbD-qRTRlNMC-30" value="has" style="shape=rhombus;perimeter=rhombusPerimeter;whiteSpace=wrap;html=1;align=center;" vertex="1" parent="1">
          <mxGeometry x="190" y="290" width="120" height="60" as="geometry" />
        </mxCell>
        <mxCell id="UxR5oteiXbD-qRTRlNMC-35" style="edgeStyle=none;shape=connector;rounded=0;orthogonalLoop=1;jettySize=auto;html=1;exitX=0.5;exitY=1;exitDx=0;exitDy=0;entryX=0.5;entryY=0;entryDx=0;entryDy=0;strokeColor=default;align=center;verticalAlign=middle;fontFamily=Helvetica;fontSize=11;fontColor=default;labelBackgroundColor=default;endArrow=open;endFill=0;" edge="1" parent="1" source="UxR5oteiXbD-qRTRlNMC-33" target="UxR5oteiXbD-qRTRlNMC-3">
          <mxGeometry relative="1" as="geometry" />
        </mxCell>
        <mxCell id="UxR5oteiXbD-qRTRlNMC-33" value="manages" style="shape=rhombus;perimeter=rhombusPerimeter;whiteSpace=wrap;html=1;align=center;" vertex="1" parent="1">
          <mxGeometry x="190" y="495" width="120" height="60" as="geometry" />
        </mxCell>
        <mxCell id="UxR5oteiXbD-qRTRlNMC-37" style="edgeStyle=none;shape=connector;rounded=0;orthogonalLoop=1;jettySize=auto;html=1;exitX=1;exitY=0.5;exitDx=0;exitDy=0;entryX=0;entryY=0.5;entryDx=0;entryDy=0;strokeColor=default;align=center;verticalAlign=middle;fontFamily=Helvetica;fontSize=11;fontColor=default;labelBackgroundColor=default;endArrow=none;" edge="1" parent="1" source="UxR5oteiXbD-qRTRlNMC-36" target="UxR5oteiXbD-qRTRlNMC-2">
          <mxGeometry relative="1" as="geometry" />
        </mxCell>
        <mxCell id="UxR5oteiXbD-qRTRlNMC-38" style="edgeStyle=none;shape=connector;rounded=0;orthogonalLoop=1;jettySize=auto;html=1;exitX=0;exitY=0.5;exitDx=0;exitDy=0;entryX=1;entryY=0.5;entryDx=0;entryDy=0;strokeColor=default;align=center;verticalAlign=middle;fontFamily=Helvetica;fontSize=11;fontColor=default;labelBackgroundColor=default;endArrow=block;startArrow=none;startFill=0;endFill=1;" edge="1" parent="1" source="UxR5oteiXbD-qRTRlNMC-36" target="UxR5oteiXbD-qRTRlNMC-4">
          <mxGeometry relative="1" as="geometry" />
        </mxCell>
        <mxCell id="UxR5oteiXbD-qRTRlNMC-36" value="owns" style="shape=rhombus;perimeter=rhombusPerimeter;whiteSpace=wrap;html=1;align=center;" vertex="1" parent="1">
          <mxGeometry x="380" y="310" width="120" height="60" as="geometry" />
        </mxCell>
        <mxCell id="UxR5oteiXbD-qRTRlNMC-47" style="edgeStyle=none;shape=connector;rounded=0;orthogonalLoop=1;jettySize=auto;html=1;exitX=1;exitY=0.5;exitDx=0;exitDy=0;entryX=0;entryY=0.5;entryDx=0;entryDy=0;strokeColor=default;align=center;verticalAlign=middle;fontFamily=Helvetica;fontSize=11;fontColor=default;labelBackgroundColor=default;endArrow=none;" edge="1" parent="1" source="UxR5oteiXbD-qRTRlNMC-40" target="UxR5oteiXbD-qRTRlNMC-45">
          <mxGeometry relative="1" as="geometry" />
        </mxCell>
        <mxCell id="UxR5oteiXbD-qRTRlNMC-48" style="edgeStyle=none;shape=connector;rounded=0;orthogonalLoop=1;jettySize=auto;html=1;exitX=1;exitY=0.5;exitDx=0;exitDy=0;entryX=0;entryY=0.5;entryDx=0;entryDy=0;strokeColor=default;align=center;verticalAlign=middle;fontFamily=Helvetica;fontSize=11;fontColor=default;labelBackgroundColor=default;endArrow=none;" edge="1" parent="1" source="UxR5oteiXbD-qRTRlNMC-40" target="UxR5oteiXbD-qRTRlNMC-46">
          <mxGeometry relative="1" as="geometry" />
        </mxCell>
        <mxCell id="UxR5oteiXbD-qRTRlNMC-40" value="Projections" style="shape=ext;margin=3;double=1;whiteSpace=wrap;html=1;align=center;fontFamily=Helvetica;fontSize=11;fontColor=default;labelBackgroundColor=default;" vertex="1" parent="1">
          <mxGeometry x="740" y="275" width="100" height="40" as="geometry" />
        </mxCell>
        <mxCell id="UxR5oteiXbD-qRTRlNMC-51" style="edgeStyle=none;shape=connector;rounded=0;orthogonalLoop=1;jettySize=auto;html=1;exitX=1;exitY=0.5;exitDx=0;exitDy=0;entryX=0;entryY=0.5;entryDx=0;entryDy=0;strokeColor=default;align=center;verticalAlign=middle;fontFamily=Helvetica;fontSize=11;fontColor=default;labelBackgroundColor=default;endArrow=none;" edge="1" parent="1" source="UxR5oteiXbD-qRTRlNMC-41" target="UxR5oteiXbD-qRTRlNMC-49">
          <mxGeometry relative="1" as="geometry" />
        </mxCell>
        <mxCell id="UxR5oteiXbD-qRTRlNMC-52" style="edgeStyle=none;shape=connector;rounded=0;orthogonalLoop=1;jettySize=auto;html=1;exitX=1;exitY=0.5;exitDx=0;exitDy=0;entryX=0;entryY=0.5;entryDx=0;entryDy=0;strokeColor=default;align=center;verticalAlign=middle;fontFamily=Helvetica;fontSize=11;fontColor=default;labelBackgroundColor=default;endArrow=none;" edge="1" parent="1" source="UxR5oteiXbD-qRTRlNMC-41" target="UxR5oteiXbD-qRTRlNMC-50">
          <mxGeometry relative="1" as="geometry" />
        </mxCell>
        <mxCell id="UxR5oteiXbD-qRTRlNMC-60" style="edgeStyle=none;shape=connector;rounded=0;orthogonalLoop=1;jettySize=auto;html=1;exitX=1;exitY=0.5;exitDx=0;exitDy=0;entryX=0;entryY=0.5;entryDx=0;entryDy=0;strokeColor=default;align=center;verticalAlign=middle;fontFamily=Helvetica;fontSize=11;fontColor=default;labelBackgroundColor=default;endArrow=none;" edge="1" parent="1" source="UxR5oteiXbD-qRTRlNMC-41" target="UxR5oteiXbD-qRTRlNMC-59">
          <mxGeometry relative="1" as="geometry" />
        </mxCell>
        <mxCell id="UxR5oteiXbD-qRTRlNMC-41" value="Stats" style="shape=ext;margin=3;double=1;whiteSpace=wrap;html=1;align=center;fontFamily=Helvetica;fontSize=11;fontColor=default;labelBackgroundColor=default;" vertex="1" parent="1">
          <mxGeometry x="740" y="485" width="100" height="40" as="geometry" />
        </mxCell>
        <mxCell id="UxR5oteiXbD-qRTRlNMC-45" value="year" style="ellipse;whiteSpace=wrap;html=1;align=center;fontStyle=4;fontFamily=Helvetica;fontSize=11;fontColor=default;labelBackgroundColor=default;" vertex="1" parent="1">
          <mxGeometry x="890" y="245" width="100" height="40" as="geometry" />
        </mxCell>
        <mxCell id="UxR5oteiXbD-qRTRlNMC-46" value="week" style="ellipse;whiteSpace=wrap;html=1;align=center;fontStyle=4;fontFamily=Helvetica;fontSize=11;fontColor=default;labelBackgroundColor=default;" vertex="1" parent="1">
          <mxGeometry x="890" y="305" width="100" height="40" as="geometry" />
        </mxCell>
        <mxCell id="UxR5oteiXbD-qRTRlNMC-49" value="year" style="ellipse;whiteSpace=wrap;html=1;align=center;fontStyle=4;fontFamily=Helvetica;fontSize=11;fontColor=default;labelBackgroundColor=default;" vertex="1" parent="1">
          <mxGeometry x="890" y="455" width="100" height="40" as="geometry" />
        </mxCell>
        <mxCell id="UxR5oteiXbD-qRTRlNMC-50" value="week" style="ellipse;whiteSpace=wrap;html=1;align=center;fontStyle=4;fontFamily=Helvetica;fontSize=11;fontColor=default;labelBackgroundColor=default;" vertex="1" parent="1">
          <mxGeometry x="890" y="515" width="100" height="40" as="geometry" />
        </mxCell>
        <mxCell id="UxR5oteiXbD-qRTRlNMC-55" style="edgeStyle=none;shape=connector;rounded=0;orthogonalLoop=1;jettySize=auto;html=1;exitX=1;exitY=0.5;exitDx=0;exitDy=0;entryX=0;entryY=0.5;entryDx=0;entryDy=0;strokeColor=default;align=center;verticalAlign=middle;fontFamily=Helvetica;fontSize=11;fontColor=default;labelBackgroundColor=default;endArrow=none;" edge="1" parent="1" source="UxR5oteiXbD-qRTRlNMC-54" target="UxR5oteiXbD-qRTRlNMC-1">
          <mxGeometry relative="1" as="geometry" />
        </mxCell>
        <mxCell id="UxR5oteiXbD-qRTRlNMC-54" value="scoringSettings" style="ellipse;shape=doubleEllipse;margin=3;whiteSpace=wrap;html=1;align=center;fontFamily=Helvetica;fontSize=11;fontColor=default;labelBackgroundColor=default;" vertex="1" parent="1">
          <mxGeometry x="60" y="260" width="100" height="40" as="geometry" />
        </mxCell>
        <mxCell id="UxR5oteiXbD-qRTRlNMC-57" style="edgeStyle=none;shape=connector;rounded=0;orthogonalLoop=1;jettySize=auto;html=1;exitX=0;exitY=0.5;exitDx=0;exitDy=0;entryX=1;entryY=0.5;entryDx=0;entryDy=0;strokeColor=default;align=center;verticalAlign=middle;fontFamily=Helvetica;fontSize=11;fontColor=default;labelBackgroundColor=default;endArrow=none;" edge="1" parent="1" source="UxR5oteiXbD-qRTRlNMC-56" target="UxR5oteiXbD-qRTRlNMC-40">
          <mxGeometry relative="1" as="geometry" />
        </mxCell>
        <mxCell id="UxR5oteiXbD-qRTRlNMC-56" value="projections" style="ellipse;shape=doubleEllipse;margin=3;whiteSpace=wrap;html=1;align=center;fontFamily=Helvetica;fontSize=11;fontColor=default;labelBackgroundColor=default;" vertex="1" parent="1">
          <mxGeometry x="890" y="370" width="100" height="40" as="geometry" />
        </mxCell>
        <mxCell id="UxR5oteiXbD-qRTRlNMC-59" value="stats" style="ellipse;shape=doubleEllipse;margin=3;whiteSpace=wrap;html=1;align=center;fontFamily=Helvetica;fontSize=11;fontColor=default;labelBackgroundColor=default;" vertex="1" parent="1">
          <mxGeometry x="890" y="585" width="100" height="40" as="geometry" />
        </mxCell>
        <mxCell id="UxR5oteiXbD-qRTRlNMC-62" style="edgeStyle=none;shape=connector;rounded=0;orthogonalLoop=1;jettySize=auto;html=1;exitX=0.5;exitY=1;exitDx=0;exitDy=0;entryX=0.5;entryY=0;entryDx=0;entryDy=0;strokeColor=default;align=center;verticalAlign=middle;fontFamily=Helvetica;fontSize=11;fontColor=default;labelBackgroundColor=default;endArrow=none;" edge="1" parent="1" source="UxR5oteiXbD-qRTRlNMC-61" target="UxR5oteiXbD-qRTRlNMC-2">
          <mxGeometry relative="1" as="geometry" />
        </mxCell>
        <mxCell id="UxR5oteiXbD-qRTRlNMC-61" value="name" style="ellipse;whiteSpace=wrap;html=1;align=center;fontFamily=Helvetica;fontSize=11;fontColor=default;labelBackgroundColor=default;" vertex="1" parent="1">
          <mxGeometry x="570" y="180" width="100" height="40" as="geometry" />
        </mxCell>
        <mxCell id="UxR5oteiXbD-qRTRlNMC-64" style="edgeStyle=none;shape=connector;rounded=0;orthogonalLoop=1;jettySize=auto;html=1;exitX=0.5;exitY=1;exitDx=0;exitDy=0;entryX=0.5;entryY=0;entryDx=0;entryDy=0;strokeColor=default;align=center;verticalAlign=middle;fontFamily=Helvetica;fontSize=11;fontColor=default;labelBackgroundColor=default;endArrow=none;" edge="1" parent="1" source="UxR5oteiXbD-qRTRlNMC-63" target="UxR5oteiXbD-qRTRlNMC-2">
          <mxGeometry relative="1" as="geometry" />
        </mxCell>
        <mxCell id="UxR5oteiXbD-qRTRlNMC-63" value="status" style="ellipse;whiteSpace=wrap;html=1;align=center;fontFamily=Helvetica;fontSize=11;fontColor=default;labelBackgroundColor=default;" vertex="1" parent="1">
          <mxGeometry x="680" y="180" width="100" height="40" as="geometry" />
        </mxCell>
        <mxCell id="UxR5oteiXbD-qRTRlNMC-72" style="edgeStyle=none;shape=connector;rounded=0;orthogonalLoop=1;jettySize=auto;html=1;exitX=0;exitY=0.5;exitDx=0;exitDy=0;entryX=1;entryY=0.5;entryDx=0;entryDy=0;strokeColor=default;align=center;verticalAlign=middle;fontFamily=Helvetica;fontSize=11;fontColor=default;labelBackgroundColor=default;endArrow=block;endFill=1;" edge="1" parent="1" source="UxR5oteiXbD-qRTRlNMC-71" target="UxR5oteiXbD-qRTRlNMC-4">
          <mxGeometry relative="1" as="geometry" />
        </mxCell>
        <mxCell id="UxR5oteiXbD-qRTRlNMC-73" style="edgeStyle=none;shape=connector;rounded=0;orthogonalLoop=1;jettySize=auto;html=1;exitX=1;exitY=0.5;exitDx=0;exitDy=0;entryX=0;entryY=0.5;entryDx=0;entryDy=0;strokeColor=default;align=center;verticalAlign=middle;fontFamily=Helvetica;fontSize=11;fontColor=default;labelBackgroundColor=default;endArrow=none;" edge="1" parent="1" source="UxR5oteiXbD-qRTRlNMC-71" target="UxR5oteiXbD-qRTRlNMC-2">
          <mxGeometry relative="1" as="geometry" />
        </mxCell>
        <mxCell id="UxR5oteiXbD-qRTRlNMC-71" value="starting" style="shape=rhombus;perimeter=rhombusPerimeter;whiteSpace=wrap;html=1;align=center;" vertex="1" parent="1">
          <mxGeometry x="380" y="430" width="120" height="60" as="geometry" />
        </mxCell>
      </root>
    </mxGraphModel>
  </diagram>
</mxfile>
